HIERARCHY
ROOT root
{
	OFFSET	0	13.1	24.9
	CHANNELS 6  Xposition Yposition Zposition Xrotation Yrotation Zrotation
	JOINT spine_1
	{
		OFFSET	0	9.99999	0
		CHANNELS 3  Xrotation Yrotation Zrotation
		JOINT spine_2
		{
			OFFSET	0	112	-10
			CHANNELS 3  Xrotation Yrotation Zrotation
			JOINT spine_3
			{
				OFFSET	0	206.5	19.3
				CHANNELS 3  Xrotation Yrotation Zrotation
				JOINT spine_4
				{
					OFFSET	0	110.4	14.6
					CHANNELS 3  Xrotation Yrotation Zrotation
					JOINT neck_1
					{
						OFFSET	0	71.8	-50.3
						CHANNELS 3  Xrotation Yrotation Zrotation
						JOINT neck_2
						{
							OFFSET	0	86.2	-25.8
							CHANNELS 3  Xrotation Yrotation Zrotation
							JOINT head_ee
							{
								OFFSET	0	179.8	-8.7
								CHANNELS 3  Xrotation Yrotation Zrotation
								End Site
								{
									OFFSET	1	0	0
								}
							}
						}
					}
					JOINT left_clavicle
					{
						OFFSET	-43.2	22.4	-70.8
						CHANNELS 3  Xrotation Yrotation Zrotation
						JOINT left_shoulder
						{
							OFFSET	-93.9	-5.79999	48.7
							CHANNELS 3  Xrotation Yrotation Zrotation
							JOINT left_elbow
							{
								OFFSET	-291.4	-30.8	15.2
								CHANNELS 3  Xrotation Yrotation Zrotation
								JOINT left_lowarm_twist
								{
									OFFSET	-110.7	-3.89999	13.6
									CHANNELS 3  Xrotation Yrotation Zrotation
									JOINT left_hand
									{
										OFFSET	-110.7	-3.89999	13.6
										CHANNELS 3  Xrotation Yrotation Zrotation
										JOINT left_ee
										{
											OFFSET	-80.8	-5.10001	12.1
											CHANNELS 3  Xrotation Yrotation Zrotation
											End Site
											{
												OFFSET	1	0	0
											}
										}
									}
								}
							}
						}
					}
					JOINT right_clavicle
					{
						OFFSET	43.2	22.4	-70.8
						CHANNELS 3  Xrotation Yrotation Zrotation
						JOINT right_shoulder
						{
							OFFSET	93.9	-5.79999	48.7
							CHANNELS 3  Xrotation Yrotation Zrotation
							JOINT right_elbow
							{
								OFFSET	291.4	-30.8	15.2
								CHANNELS 3  Xrotation Yrotation Zrotation
								JOINT right_lowarm_twist
								{
									OFFSET	110.7	-3.89999	13.6
									CHANNELS 3  Xrotation Yrotation Zrotation
									JOINT right_hand
									{
										OFFSET	110.7	-3.89999	13.6
										CHANNELS 3  Xrotation Yrotation Zrotation
										JOINT right_ee
										{
											OFFSET	80.8	-5.10001	12.1
											CHANNELS 3  Xrotation Yrotation Zrotation
											End Site
											{
												OFFSET	1	0	0
											}
										}
									}
								}
							}
						}
					}
				}
			}
		}
	}
	JOINT left_hip
	{
		OFFSET	-82.8	-127.5	0.300001
		CHANNELS 3  Xrotation Yrotation Zrotation
		JOINT left_knee
		{
			OFFSET	-28.2	-396.7	2.2
			CHANNELS 3  Xrotation Yrotation Zrotation
			JOINT left_ankle
			{
				OFFSET	-11.7	-411.3	35.4
				CHANNELS 3  Xrotation Yrotation Zrotation
				JOINT left_toes
				{
					OFFSET	0	-60	-88.6
					CHANNELS 3  Xrotation Yrotation Zrotation
					JOINT left_foot_ee
					{
						OFFSET	-22.5	-16.5	-42.2
						CHANNELS 3  Xrotation Yrotation Zrotation
						End Site
						{
							OFFSET	1	0	0
						}
					}
				}
			}
		}
	}
	JOINT right_hip
	{
		OFFSET	82.8	-127.5	0.300001
		CHANNELS 3  Xrotation Yrotation Zrotation
		JOINT right_knee
		{
			OFFSET	28.2	-396.7	2.2
			CHANNELS 3  Xrotation Yrotation Zrotation
			JOINT right_ankle
			{
				OFFSET	11.7	-411.3	35.4
				CHANNELS 3  Xrotation Yrotation Zrotation
				JOINT right_toes
				{
					OFFSET	0	-60	-88.6
					CHANNELS 3  Xrotation Yrotation Zrotation
					JOINT right_foot_ee
					{
						OFFSET	22.5	-16.5	-42.2
						CHANNELS 3  Xrotation Yrotation Zrotation
						End Site
						{
							OFFSET	1	0	0
						}
					}
				}
			}
		}
	}
}
MOTION
Frames: 6
Frame Time: 0.02
3505.76859825 721.022 -1538.33180767 9.02430034577 58.1193338421 -5.19802298879 -2.9865 0.108942 0.648748 -2.98626 0.0674401 0.654365 -2.98518 -0.105559 0.649307 -2.98576 -0.00169056 0.657829 5.19384 19.0275 -2.62334 7.02874 34.9658 -2.68619 -0.0 0.0 -0.0 3.28454 19.1891 7.14945 -28.336 -4.36792 61.266 2.27828 -48.4504 1.02521 -53.8743 -4.53226 4.87003 -0.780976 15.4455 1.48212 -0.0 0.0 -0.0 10.3278 27.8826 -19.3855 -11.6571 38.5684 -55.4911 0.870044 23.3155 -0.179512 -1.33987 0.0491325 -0.164047 -3.96574 3.08603 29.2298 0.0 0.0 0.0 13.7088 19.5138 -16.0962 -32.0055 -0.0379612 4.84826 22.9474 -14.5347 -3.31672 2.52818 -0.0 -0.0 -0.0 0.0 -0.0 -2.53772 20.3224 -9.61907 -6.46938 -0.211793 -0.969745 23.7825 -21.4225 3.29501 -8.85907 0.0 0.0 0.0 0.0 0.0 
3508.56732563 721.022 -1541.22533952 8.44985187522 55.683114654 -4.51246039915 -2.9865 0.108942 0.648748 -2.98626 0.0674401 0.654365 -2.98518 -0.105559 0.649307 -2.98576 -0.00169056 0.657829 5.19384 19.0275 -2.62334 7.02874 34.9658 -2.68619 -0.0 0.0 -0.0 3.28454 19.1891 7.14945 -28.336 -4.36792 61.266 2.27828 -48.4504 1.02521 -53.8743 -4.53226 4.87003 -0.780976 15.4455 1.48212 -0.0 0.0 -0.0 10.3278 27.8826 -19.3855 -11.6571 38.5684 -55.4911 0.870044 23.3155 -0.179512 -1.33987 0.0491325 -0.164047 -3.96574 3.08603 29.2298 0.0 0.0 0.0 13.7088 19.5138 -16.0962 -32.0055 -0.0379612 4.84826 22.9474 -14.5347 -3.31672 2.52818 -0.0 -0.0 -0.0 0.0 -0.0 -2.53772 20.3224 -9.61907 -6.46938 -0.211793 -0.969745 23.7825 -21.4225 3.29501 -8.85907 0.0 0.0 0.0 0.0 0.0 
3509.54096457 721.022 -1542.17564969 8.27508473321 54.8589995855 -4.29981672479 -2.9865 0.108942 0.648748 -2.98626 0.0674401 0.654365 -2.98518 -0.105559 0.649307 -2.98576 -0.00169056 0.657829 5.19384 19.0275 -2.62334 7.02874 34.9658 -2.68619 -0.0 0.0 -0.0 3.28454 19.1891 7.14945 -28.336 -4.36792 61.266 2.27828 -48.4504 1.02521 -53.8743 -4.53226 4.87003 -0.780976 15.4455 1.48212 -0.0 0.0 -0.0 10.3278 27.8826 -19.3855 -11.6571 38.5684 -55.4911 0.870044 23.3155 -0.179512 -1.33987 0.0491325 -0.164047 -3.96574 3.08603 29.2298 0.0 0.0 0.0 13.7088 19.5138 -16.0962 -32.0055 -0.0379612 4.84826 22.9474 -14.5347 -3.31672 2.52818 -0.0 -0.0 -0.0 0.0 -0.0 -2.53772 20.3224 -9.61907 -6.46938 -0.211793 -0.969745 23.7825 -21.4225 3.29501 -8.85907 0.0 0.0 0.0 0.0 0.0 
3509.80926665 721.022 -1542.43271808 8.22889043777 54.6338633529 -4.24324816267 -2.9865 0.108942 0.648748 -2.98626 0.0674401 0.654365 -2.98518 -0.105559 0.649307 -2.98576 -0.00169056 0.657829 5.19384 19.0275 -2.62334 7.02874 34.9658 -2.68619 -0.0 0.0 -0.0 3.28454 19.1891 7.14945 -28.336 -4.36792 61.266 2.27828 -48.4504 1.02521 -53.8743 -4.53226 4.87003 -0.780976 15.4455 1.48212 -0.0 0.0 -0.0 10.3278 27.8826 -19.3855 -11.6571 38.5684 -55.4911 0.870044 23.3155 -0.179512 -1.33987 0.0491325 -0.164047 -3.96574 3.08603 29.2298 0.0 0.0 0.0 13.7088 19.5138 -16.0962 -32.0055 -0.0379612 4.84826 22.9474 -14.5347 -3.31672 2.52818 -0.0 -0.0 -0.0 0.0 -0.0 -2.53772 20.3224 -9.61907 -6.46938 -0.211793 -0.969745 23.7825 -21.4225 3.29501 -8.85907 0.0 0.0 0.0 0.0 0.0 
3484.54591075 720.955 -1531.73761423 5.73176557085 56.8190742956 -2.8282273808 -2.97977 -0.06382 0.833436 -2.97939 -0.116723 0.827687 -2.98073 -0.328512 0.768619 -2.9815 -0.203004 0.810852 7.8713 19.2942 -2.72669 10.0578 34.8167 -3.51603 -0.0 0.0 -0.0 2.96484 20.8005 6.71665 -32.1958 -3.85369 63.9982 2.11291 -46.3006 0.903509 -51.3143 -4.22659 4.74987 -0.499416 13.6868 2.48998 -0.0 0.0 -0.0 10.7183 25.2311 -20.5576 -4.67566 40.5985 -54.7874 0.981705 25.9335 -0.22605 -1.82842 0.0680011 -0.223574 -4.76282 3.38514 35.7636 0.0 0.0 0.0 14.5728 20.5682 -16.2662 -23.6293 0.234921 3.59287 15.722 -19.3668 -2.45026 4.4092 -0.0 -0.0 -0.0 0.0 -0.0 -3.31263 27.2093 -7.99351 -2.2503 -0.0860912 -0.334592 24.1365 -20.7834 3.32908 -10.527 0.0 0.0 0.0 0.0 0.0 
3484.295021 720.955 -1531.34014186 5.77073004816 57.0708402719 -2.87471610478 -2.97977 -0.06382 0.833436 -2.97939 -0.116723 0.827687 -2.98073 -0.328512 0.768619 -2.9815 -0.203004 0.810852 7.8713 19.2942 -2.72669 10.0578 34.8167 -3.51603 -0.0 0.0 -0.0 2.96484 20.8005 6.71665 -32.1958 -3.85369 63.9982 2.11291 -46.3006 0.903509 -51.3143 -4.22659 4.74987 -0.499416 13.6868 2.48998 -0.0 0.0 -0.0 10.7183 25.2311 -20.5576 -4.67566 40.5985 -54.7874 0.981705 25.9335 -0.22605 -1.82842 0.0680011 -0.223574 -4.76282 3.38514 35.7636 0.0 0.0 0.0 14.5728 20.5682 -16.2662 -23.6293 0.234921 3.59287 15.722 -19.3668 -2.45026 4.4092 -0.0 -0.0 -0.0 0.0 -0.0 -3.31263 27.2093 -7.99351 -2.2503 -0.0860912 -0.334592 24.1365 -20.7834 3.32908 -10.527 0.0 0.0 0.0 0.0 0.0 
